<mxfile host="www.draw.io" modified="2019-11-02T06:08:16.218Z" agent="Mozilla/5.0 (Windows NT 10.0; Win64; x64) AppleWebKit/537.36 (KHTML, like Gecko) Chrome/78.0.3904.70 Safari/537.36" etag="ggs0duAKFbtmMWj3Jkhe" version="12.1.9" type="github" pages="1">
  <diagram id="_xHJPKiAhbN0hg_I8TQN" name="Page-1">
    <mxGraphModel dx="442" dy="328" grid="1" gridSize="10" guides="1" tooltips="1" connect="1" arrows="1" fold="1" page="1" pageScale="1" pageWidth="827" pageHeight="1169" math="0" shadow="0">
      <root>
        <mxCell id="0"/>
        <mxCell id="1" parent="0"/>
        <mxCell id="WhLAhUN-oLHZpjv87Znm-1" value="源端口" style="rounded=0;whiteSpace=wrap;html=1;" parent="1" vertex="1">
          <mxGeometry x="120" y="80" width="160" height="40" as="geometry"/>
        </mxCell>
        <mxCell id="WhLAhUN-oLHZpjv87Znm-2" value="目标端口" style="rounded=0;whiteSpace=wrap;html=1;" parent="1" vertex="1">
          <mxGeometry x="280" y="80" width="160" height="40" as="geometry"/>
        </mxCell>
        <mxCell id="WhLAhUN-oLHZpjv87Znm-3" value="序号" style="rounded=0;whiteSpace=wrap;html=1;" parent="1" vertex="1">
          <mxGeometry x="120" y="120" width="320" height="40" as="geometry"/>
        </mxCell>
        <mxCell id="WhLAhUN-oLHZpjv87Znm-4" value="确认序号" style="rounded=0;whiteSpace=wrap;html=1;" parent="1" vertex="1">
          <mxGeometry x="120" y="160" width="320" height="40" as="geometry"/>
        </mxCell>
        <mxCell id="WhLAhUN-oLHZpjv87Znm-5" value="数据偏移" style="rounded=0;whiteSpace=wrap;html=1;" parent="1" vertex="1">
          <mxGeometry x="120" y="200" width="40" height="40" as="geometry"/>
        </mxCell>
        <mxCell id="WhLAhUN-oLHZpjv87Znm-6" value="滑动窗口" style="rounded=0;whiteSpace=wrap;html=1;" parent="1" vertex="1">
          <mxGeometry x="280" y="200" width="160" height="40" as="geometry"/>
        </mxCell>
        <mxCell id="WhLAhUN-oLHZpjv87Znm-9" value="紧急指针" style="rounded=0;whiteSpace=wrap;html=1;" parent="1" vertex="1">
          <mxGeometry x="280" y="240" width="160" height="40" as="geometry"/>
        </mxCell>
        <mxCell id="WhLAhUN-oLHZpjv87Znm-10" value="校验和" style="rounded=0;whiteSpace=wrap;html=1;" parent="1" vertex="1">
          <mxGeometry x="120" y="240" width="160" height="40" as="geometry"/>
        </mxCell>
        <mxCell id="bmKOuPArTdEX1z0llnb3-1" value="选项or填充" style="rounded=0;whiteSpace=wrap;html=1;" vertex="1" parent="1">
          <mxGeometry x="120" y="280" width="320" height="40" as="geometry"/>
        </mxCell>
        <mxCell id="bmKOuPArTdEX1z0llnb3-4" value="数据" style="rounded=0;whiteSpace=wrap;html=1;dashed=1;" vertex="1" parent="1">
          <mxGeometry x="120" y="320" width="320" height="40" as="geometry"/>
        </mxCell>
        <mxCell id="bmKOuPArTdEX1z0llnb3-5" value="FIN" style="rounded=0;whiteSpace=wrap;html=1;horizontal=0;verticalAlign=middle;" vertex="1" parent="1">
          <mxGeometry x="270" y="200" width="10" height="40" as="geometry"/>
        </mxCell>
        <mxCell id="bmKOuPArTdEX1z0llnb3-6" value="" style="endArrow=classic;startArrow=classic;html=1;" edge="1" parent="1">
          <mxGeometry width="50" height="50" relative="1" as="geometry">
            <mxPoint x="120" y="70" as="sourcePoint"/>
            <mxPoint x="280" y="70" as="targetPoint"/>
          </mxGeometry>
        </mxCell>
        <mxCell id="bmKOuPArTdEX1z0llnb3-8" value="16bit" style="text;html=1;resizable=0;points=[];align=center;verticalAlign=middle;labelBackgroundColor=#ffffff;" vertex="1" connectable="0" parent="bmKOuPArTdEX1z0llnb3-6">
          <mxGeometry x="-0.0518" y="-1" relative="1" as="geometry">
            <mxPoint as="offset"/>
          </mxGeometry>
        </mxCell>
        <mxCell id="bmKOuPArTdEX1z0llnb3-9" value="" style="endArrow=classic;startArrow=classic;html=1;" edge="1" parent="1">
          <mxGeometry width="50" height="50" relative="1" as="geometry">
            <mxPoint x="280" y="70" as="sourcePoint"/>
            <mxPoint x="440" y="70" as="targetPoint"/>
          </mxGeometry>
        </mxCell>
        <mxCell id="bmKOuPArTdEX1z0llnb3-10" value="16bit" style="text;html=1;resizable=0;points=[];align=center;verticalAlign=middle;labelBackgroundColor=#ffffff;" vertex="1" connectable="0" parent="bmKOuPArTdEX1z0llnb3-9">
          <mxGeometry x="-0.0518" y="-1" relative="1" as="geometry">
            <mxPoint as="offset"/>
          </mxGeometry>
        </mxCell>
        <mxCell id="bmKOuPArTdEX1z0llnb3-14" value="RST" style="rounded=0;whiteSpace=wrap;html=1;horizontal=0;verticalAlign=middle;" vertex="1" parent="1">
          <mxGeometry x="250" y="200" width="10" height="40" as="geometry"/>
        </mxCell>
        <mxCell id="bmKOuPArTdEX1z0llnb3-16" value="SYN" style="rounded=0;whiteSpace=wrap;html=1;horizontal=0;verticalAlign=middle;" vertex="1" parent="1">
          <mxGeometry x="260" y="200" width="10" height="40" as="geometry"/>
        </mxCell>
        <mxCell id="bmKOuPArTdEX1z0llnb3-17" value="PSH" style="rounded=0;whiteSpace=wrap;html=1;horizontal=0;verticalAlign=middle;" vertex="1" parent="1">
          <mxGeometry x="240" y="200" width="10" height="40" as="geometry"/>
        </mxCell>
        <mxCell id="bmKOuPArTdEX1z0llnb3-18" value="ACK" style="rounded=0;whiteSpace=wrap;html=1;horizontal=0;verticalAlign=middle;" vertex="1" parent="1">
          <mxGeometry x="230" y="200" width="10" height="40" as="geometry"/>
        </mxCell>
        <mxCell id="bmKOuPArTdEX1z0llnb3-19" value="URG" style="rounded=0;whiteSpace=wrap;html=1;horizontal=0;verticalAlign=middle;" vertex="1" parent="1">
          <mxGeometry x="220" y="200" width="10" height="40" as="geometry"/>
        </mxCell>
        <mxCell id="bmKOuPArTdEX1z0llnb3-20" value="保留" style="rounded=0;whiteSpace=wrap;html=1;" vertex="1" parent="1">
          <mxGeometry x="160" y="200" width="60" height="40" as="geometry"/>
        </mxCell>
        <mxCell id="bmKOuPArTdEX1z0llnb3-21" value="URG: 紧急指针标志 1表示有效, 0表示忽略&lt;br&gt;ACK: 确认序号标志&amp;nbsp; 1表示确认号有效, 0表示不包含确认信息&lt;br&gt;PSH: PUSH标志 1表示带push标志的数据, 数据应尽快处理,而不是在缓冲区排队&lt;br&gt;RST: 重置连接标志, 重置出现错误的连接, 或者拒绝非法报文和连接&lt;br&gt;SYN: 同步序号&lt;br&gt;FIN: 释放链接, 为1要关闭本方的数据流" style="text;html=1;strokeColor=none;fillColor=none;align=left;verticalAlign=middle;whiteSpace=wrap;rounded=0;dashed=1;" vertex="1" parent="1">
          <mxGeometry x="120" y="370" width="330" height="120" as="geometry"/>
        </mxCell>
      </root>
    </mxGraphModel>
  </diagram>
</mxfile>
